<?xml version="1.0" standalone="no"?>
<!DOCTYPE svg PUBLIC "-//W3C//DTD SVG 20010904//EN"
 "http://www.w3.org/TR/2001/REC-SVG-20010904/DTD/svg10.dtd">
<svg version="1.0" xmlns="http://www.w3.org/2000/svg"
 width="1080.000000pt" height="1350.000000pt" viewBox="0 0 1080.000000 1350.000000"
 preserveAspectRatio="xMidYMid meet">
<metadata>
Created by potrace 1.16, written by Peter Selinger 2001-2019
</metadata>
<g transform="translate(0.000000,1350.000000) scale(0.100000,-0.100000)"
fill="#000000" stroke="none">
<path d="M4830 8394 c-111 -27 -311 -34 -926 -34 l-625 0 -76 -25 c-188 -63
-286 -193 -271 -356 8 -76 79 -201 102 -178 3 3 -3 29 -14 57 -71 187 46 371
260 412 29 5 201 10 381 10 l329 0 0 -280 0 -280 90 0 90 0 0 280 0 281 303
-3 304 -3 37 -29 c44 -33 75 -95 76 -148 0 -21 5 -38 10 -38 6 0 10 65 10 175
0 134 -3 175 -12 174 -7 -1 -38 -7 -68 -15z"/>
<path d="M7205 8387 c-65 -19 -103 -21 -577 -24 -280 -3 -508 -8 -508 -13 0
-4 21 -11 48 -15 56 -8 77 -18 115 -54 55 -51 57 -60 57 -321 l0 -240 95 0 95
0 0 275 0 275 324 0 c319 0 323 0 357 -23 40 -26 69 -79 69 -124 0 -18 5 -33
10 -33 6 0 10 60 10 160 0 122 -3 160 -12 159 -7 -1 -44 -11 -83 -22z"/>
<path d="M5140 8351 c0 -5 21 -12 48 -16 56 -8 77 -18 115 -54 60 -55 62 -65
65 -323 l4 -238 88 0 89 0 3 243 3 244 27 40 c33 50 79 79 141 87 26 4 47 11
47 17 0 5 -125 9 -315 9 -176 0 -315 -4 -315 -9z"/>
<path d="M411 7545 c0 -22 3 -33 6 -25 11 31 37 40 120 40 l83 0 0 -232 c0
-128 -4 -238 -8 -245 -4 -7 -19 -16 -32 -22 -19 -7 -2 -10 70 -9 52 0 86 3 75
5 -44 11 -45 14 -45 264 l0 239 83 0 c87 0 112 -9 120 -45 3 -11 5 0 6 25 l1
45 -240 0 -240 0 1 -40z"/>
<path d="M1850 7580 c-91 -3 -155 -7 -143 -8 48 -4 53 -30 53 -257 0 -226 -5
-249 -53 -258 -12 -3 61 -4 162 -3 l183 1 19 50 c10 28 19 52 19 54 0 2 -15
-13 -34 -35 l-34 -39 -106 -3 -106 -4 0 111 0 111 88 0 c82 0 90 -2 100 -22 9
-19 11 -12 11 42 1 59 -1 63 -12 40 -12 -23 -18 -25 -100 -28 l-87 -3 0 111 0
111 107 -3 c103 -3 108 -4 120 -28 12 -24 13 -22 13 23 0 39 -3 47 -17 45 -10
-1 -92 -5 -183 -8z"/>
<path d="M4403 7543 c-11 -27 -64 -142 -119 -257 -85 -182 -102 -210 -128
-222 -29 -12 -26 -13 53 -14 83 0 83 0 60 19 l-23 19 29 71 28 72 115 -3 114
-3 24 -59 c30 -74 30 -94 2 -106 -16 -6 5 -9 72 -9 l95 -1 -34 18 c-32 16 -44
38 -147 266 -62 136 -115 250 -117 252 -2 3 -13 -17 -24 -43z m69 -168 l46
-115 -100 0 c-55 0 -98 4 -96 8 54 135 93 222 97 222 3 0 27 -52 53 -115z"/>
<path d="M5031 7553 c-7 -21 -58 -135 -114 -253 -92 -194 -105 -217 -137 -232
l-35 -18 90 1 c67 0 84 3 66 10 -20 8 -23 14 -18 42 3 17 14 53 26 80 l20 47
113 0 113 0 29 -71 30 -72 -23 -18 c-23 -19 -22 -19 65 -18 49 0 82 3 74 6
-37 14 -62 57 -165 287 -61 135 -113 246 -116 246 -3 0 -11 -17 -18 -37z m70
-191 c22 -52 39 -97 39 -99 0 -1 -45 -3 -99 -3 l-100 0 41 93 c22 50 44 103
50 117 9 23 10 24 20 6 6 -10 28 -61 49 -114z"/>
<path d="M6390 7580 c-91 -3 -156 -7 -144 -8 11 -1 28 -10 37 -20 15 -16 17
-48 17 -233 0 -231 -4 -253 -53 -262 -12 -2 21 -5 73 -5 72 -1 89 2 70 9 -13
6 -28 15 -32 22 -4 7 -8 58 -8 115 l0 103 92 -3 c89 -3 92 -4 99 -28 4 -15 7
2 7 45 0 43 -3 60 -7 45 -7 -24 -10 -25 -99 -28 l-92 -3 0 111 0 111 112 -3
c110 -3 112 -3 119 -28 5 -19 7 -14 8 23 1 39 -2 47 -16 45 -10 -1 -92 -5
-183 -8z"/>
<path d="M6961 7553 c-7 -21 -58 -135 -114 -253 -92 -194 -105 -217 -137 -232
l-35 -18 90 1 c67 0 84 3 66 10 -20 8 -23 14 -18 42 3 17 14 53 26 80 l20 47
113 0 113 0 29 -71 30 -72 -23 -18 c-23 -19 -22 -19 65 -18 49 0 82 3 74 6
-37 14 -62 57 -165 287 -61 135 -113 246 -116 246 -3 0 -11 -17 -18 -37z m70
-191 c22 -52 39 -97 39 -99 0 -1 -45 -3 -99 -3 l-100 0 41 93 c22 50 44 103
50 117 9 23 10 24 20 6 6 -10 28 -61 49 -114z"/>
<path d="M7530 7575 c-109 -35 -170 -127 -170 -258 0 -121 41 -196 133 -245
46 -24 63 -27 148 -27 86 0 101 3 154 30 73 38 92 64 99 140 l5 60 -15 -50
c-34 -108 -104 -157 -227 -158 -160 -1 -246 101 -235 277 6 95 38 154 106 193
40 24 58 28 122 27 109 0 173 -39 210 -125 7 -18 8 -12 4 26 -9 68 -17 80 -66
100 -58 24 -207 30 -268 10z"/>
<path d="M7991 7545 c0 -22 3 -33 6 -25 11 31 37 40 120 40 l83 0 0 -232 c0
-128 -4 -238 -8 -245 -4 -7 -19 -16 -32 -22 -19 -7 -2 -10 70 -9 52 0 86 3 75
5 -44 11 -45 14 -45 264 l0 239 83 0 c87 0 112 -9 120 -45 3 -11 5 0 6 25 l1
45 -240 0 -240 0 1 -40z"/>
<path d="M8759 7575 c-56 -18 -133 -84 -160 -137 -47 -92 -30 -223 38 -299
107 -119 310 -132 435 -29 89 73 117 216 64 324 -29 59 -65 95 -130 128 -53
28 -181 34 -247 13z m178 -20 c54 -16 112 -65 139 -118 25 -48 30 -154 10
-215 -24 -71 -94 -136 -166 -151 -137 -30 -254 50 -280 190 -25 133 39 252
156 294 51 18 79 18 141 0z"/>
<path d="M1005 7573 c44 -11 45 -15 45 -258 0 -243 -1 -247 -45 -258 -11 -2
23 -5 75 -5 72 -1 89 2 70 9 -13 6 -28 15 -32 22 -4 7 -8 58 -8 115 l0 102
165 0 165 0 0 -96 c0 -102 -8 -130 -43 -144 -15 -6 6 -9 68 -9 50 1 83 3 75 6
-49 18 -50 22 -50 257 0 122 4 226 8 233 4 7 19 16 32 22 19 7 4 10 -65 10
-57 0 -83 -3 -70 -9 41 -16 46 -33 43 -141 l-3 -104 -162 -3 -163 -2 0 114 c0
118 4 129 45 139 11 2 -23 5 -75 5 -52 0 -86 -3 -75 -5z"/>
<path d="M2495 7573 c45 -11 45 -12 45 -295 0 -299 0 -302 -67 -358 l-38 -31
30 7 c48 10 94 46 115 90 18 37 20 61 20 301 0 278 0 276 50 286 14 2 -20 4
-75 4 -55 1 -91 -2 -80 -4z"/>
<path d="M2807 7573 c48 -9 53 -32 53 -258 0 -226 -5 -249 -53 -258 -12 -2 23
-4 78 -4 55 -1 91 2 80 4 -11 3 -28 12 -37 21 -16 13 -18 38 -18 237 0 199 2
224 18 237 9 9 26 18 37 21 11 2 -25 5 -80 4 -55 0 -90 -2 -78 -4z"/>
<path d="M3137 7573 c48 -9 53 -32 53 -258 0 -226 -5 -249 -53 -258 -12 -3 61
-4 162 -3 l183 1 19 50 c10 28 19 52 19 54 0 2 -15 -13 -34 -35 l-34 -39 -106
-3 -106 -4 0 229 c0 125 4 233 8 240 4 7 19 16 32 22 19 7 2 10 -70 9 -52 0
-85 -3 -73 -5z"/>
<path d="M3660 7569 c13 -6 28 -15 32 -22 4 -7 8 -111 8 -233 0 -235 -1 -238
-50 -257 -8 -4 50 -5 130 -4 122 2 151 5 184 22 57 29 81 66 81 125 0 40 -5
54 -29 79 -15 16 -42 35 -60 42 -17 7 -32 14 -34 15 -2 1 14 18 35 37 34 32
38 40 37 82 -1 55 -34 96 -93 114 -49 14 -278 14 -241 0z m237 -35 c32 -20 47
-76 33 -119 -14 -44 -44 -64 -107 -75 -43 -7 -44 -8 -13 -9 133 -5 207 -87
166 -184 -20 -50 -59 -67 -151 -67 l-75 0 0 233 c0 129 3 237 7 241 11 10 115
-4 140 -20z"/>
<path d="M5445 7573 c45 -12 45 -15 45 -258 0 -243 -1 -246 -45 -258 -11 -3
48 -5 130 -4 134 2 155 5 192 25 51 27 73 65 73 126 0 39 -5 51 -36 81 -19 20
-49 38 -65 42 -34 6 -38 19 -9 28 53 17 76 96 45 155 -27 53 -64 64 -215 67
-74 1 -126 -1 -115 -4z m195 -22 c109 -22 125 -155 24 -197 -18 -8 -46 -15
-61 -15 -16 -1 -5 -5 26 -10 109 -18 151 -57 151 -140 0 -33 -6 -47 -34 -75
-33 -33 -36 -34 -115 -34 l-81 0 0 240 0 240 23 0 c12 -1 42 -5 67 -9z"/>
<path d="M9315 7573 c42 -10 45 -26 45 -257 0 -122 -4 -226 -8 -233 -4 -7 -19
-16 -32 -22 -19 -7 -2 -10 70 -9 52 0 85 3 73 5 -49 9 -53 31 -53 270 l0 223
70 0 c115 0 150 -28 150 -120 0 -44 -5 -56 -29 -81 -26 -26 -36 -29 -93 -29
l-63 0 32 -20 c18 -11 52 -45 75 -76 105 -140 150 -174 233 -174 30 0 30 0
-10 20 -22 11 -62 47 -90 82 -27 34 -65 78 -82 99 -38 42 -40 49 -13 49 32 0
89 58 101 103 16 62 -1 110 -53 145 -40 26 -46 27 -192 29 -83 1 -142 -1 -131
-4z"/>
<path d="M9860 7573 c41 -6 63 -31 149 -166 l81 -128 0 -98 c0 -102 -4 -114
-45 -124 -11 -2 23 -5 75 -5 72 -1 89 2 70 9 -36 15 -40 25 -40 122 l0 88 89
132 c95 143 105 154 148 167 20 6 1 8 -67 9 -66 0 -88 -3 -72 -9 12 -5 22 -17
22 -26 0 -18 -127 -234 -138 -234 -9 0 -126 209 -130 233 -2 10 5 21 20 26 16
7 -8 9 -82 9 -58 -1 -94 -3 -80 -5z"/>
<path d="M3990 6713 c0 -183 -8 -227 -47 -273 -32 -39 -65 -56 -125 -64 -27
-4 -48 -11 -48 -17 0 -5 125 -9 315 -9 173 0 315 4 315 8 0 5 -27 14 -61 20
-69 13 -120 46 -146 95 -14 26 -18 67 -21 220 l-4 187 -89 0 -89 0 0 -167z"/>
<path d="M5370 6743 c-1 -459 -78 -666 -285 -764 -76 -36 -164 -53 -235 -45
-103 11 -113 11 -117 0 -13 -37 237 -68 345 -44 177 39 305 133 381 280 73
139 83 193 88 468 l5 242 -91 0 -91 0 0 -137z"/>
<path d="M6340 6705 c0 -187 -7 -224 -53 -273 -30 -33 -64 -49 -120 -57 -113
-17 -27 -25 268 -25 173 0 315 4 315 8 0 5 -27 13 -59 20 -70 13 -116 43 -142
94 -17 33 -19 60 -19 223 l0 185 -95 0 -95 0 0 -175z"/>
</g>
</svg>
